<svg xmlns="http://www.w3.org/2000/svg" xmlns:xlink="http://www.w3.org/1999/xlink" width="1000" zoomAndPan="magnify" viewBox="0 0 750 187.499995" height="250" preserveAspectRatio="xMidYMid meet" version="1.0"><defs><g/></defs><g fill="#a6a6a6" fill-opacity="1"><g transform="translate(29.737116, 142.121001)"><g><path d="M 14.78125 -84 C 12.445312 -84 10.457031 -84.796875 8.8125 -86.390625 C 7.175781 -87.992188 6.359375 -89.921875 6.359375 -92.171875 C 6.359375 -94.421875 7.175781 -96.320312 8.8125 -97.875 C 10.457031 -99.4375 12.445312 -100.21875 14.78125 -100.21875 C 17.113281 -100.21875 19.097656 -99.4375 20.734375 -97.875 C 22.378906 -96.320312 23.203125 -94.421875 23.203125 -92.171875 C 23.203125 -89.921875 22.378906 -87.992188 20.734375 -86.390625 C 19.097656 -84.796875 17.113281 -84 14.78125 -84 Z M 20.21875 0 L 9.203125 0 L 9.203125 -71.6875 L 20.21875 -71.6875 Z M 20.21875 0 "/></g></g></g><g fill="#a6a6a6" fill-opacity="1"><g transform="translate(59.162453, 142.121001)"><g><path d="M 32.015625 0 L 25.921875 0 C 22.378906 0 19.332031 -0.492188 16.78125 -1.484375 C 14.238281 -2.484375 12.296875 -4.300781 10.953125 -6.9375 C 9.609375 -9.570312 8.9375 -13.265625 8.9375 -18.015625 L 8.9375 -98.921875 L 19.96875 -98.921875 L 19.96875 -19.703125 C 19.96875 -17.546875 20.117188 -15.734375 20.421875 -14.265625 C 20.722656 -12.796875 21.476562 -11.671875 22.6875 -10.890625 C 23.894531 -10.109375 25.835938 -9.71875 28.515625 -9.71875 L 32.015625 -9.71875 Z M 32.015625 0 "/></g></g></g><g fill="#a6a6a6" fill-opacity="1"><g transform="translate(95.069137, 142.121001)"><g><path d="M 29.5625 1.296875 C 22.382812 1.296875 16.695312 -0.515625 12.5 -4.140625 C 8.3125 -7.773438 6.21875 -12.75 6.21875 -19.0625 C 6.21875 -25.28125 8.550781 -30.207031 13.21875 -33.84375 C 17.019531 -36.863281 22.507812 -39.109375 29.6875 -40.578125 L 55.234375 -45.5 C 55.234375 -51.125 53.757812 -55.40625 50.8125 -58.34375 C 47.53125 -61.625 43.125 -63.265625 37.59375 -63.265625 C 33.1875 -63.265625 29.363281 -62.097656 26.125 -59.765625 C 22.882812 -57.429688 20.832031 -54.234375 19.96875 -50.171875 L 8.9375 -50.171875 C 9.800781 -55.179688 11.640625 -59.367188 14.453125 -62.734375 C 17.265625 -66.109375 20.703125 -68.660156 24.765625 -70.390625 C 28.828125 -72.117188 33.144531 -72.984375 37.71875 -72.984375 C 41.875 -72.984375 45.785156 -72.378906 49.453125 -71.171875 C 53.128906 -69.960938 56.222656 -68.101562 58.734375 -65.59375 C 61.234375 -63.175781 63 -60.453125 64.03125 -57.421875 C 65.070312 -54.398438 65.703125 -51.523438 65.921875 -48.796875 C 66.140625 -46.078125 66.25 -43.898438 66.25 -42.265625 L 66.25 0 L 55.234375 0 L 55.234375 -11.28125 C 52.722656 -7.644531 49.828125 -4.835938 46.546875 -2.859375 C 44.117188 -1.378906 41.5 -0.316406 38.6875 0.328125 C 35.882812 0.972656 32.84375 1.296875 29.5625 1.296875 Z M 30.859375 -8.421875 C 35.265625 -8.421875 39.066406 -9.242188 42.265625 -10.890625 C 47.359375 -13.566406 50.8125 -17.019531 52.625 -21.25 C 54.445312 -25.488281 55.359375 -30.59375 55.359375 -36.5625 L 32.015625 -31.890625 C 26.660156 -30.847656 22.726562 -29.160156 20.21875 -26.828125 C 18.238281 -24.847656 17.25 -22.34375 17.25 -19.3125 C 17.25 -16.03125 18.476562 -13.394531 20.9375 -11.40625 C 23.394531 -9.414062 26.703125 -8.421875 30.859375 -8.421875 Z M 30.859375 -8.421875 "/></g></g></g><g fill="#a6a6a6" fill-opacity="1"><g transform="translate(169.734298, 142.121001)"><g><path d="M 43.8125 1.296875 C 38.882812 1.296875 34.648438 0.390625 31.109375 -1.421875 C 27.566406 -3.242188 23.984375 -6.488281 20.359375 -11.15625 L 20.359375 0 L 9.328125 0 L 9.328125 -98.921875 L 20.359375 -98.921875 L 20.359375 -60.546875 C 24.066406 -65.378906 27.710938 -68.660156 31.296875 -70.390625 C 34.890625 -72.117188 39.0625 -72.984375 43.8125 -72.984375 C 50.300781 -72.984375 55.921875 -71.40625 60.671875 -68.25 C 65.421875 -65.101562 69.113281 -60.738281 71.75 -55.15625 C 74.382812 -49.582031 75.703125 -43.125 75.703125 -35.78125 C 75.703125 -28.519531 74.382812 -22.101562 71.75 -16.53125 C 69.113281 -10.957031 65.421875 -6.59375 60.671875 -3.4375 C 55.921875 -0.28125 50.300781 1.296875 43.8125 1.296875 Z M 42.78125 -8.421875 C 47.269531 -8.421875 51.15625 -9.628906 54.4375 -12.046875 C 57.726562 -14.472656 60.257812 -17.738281 62.03125 -21.84375 C 63.800781 -25.945312 64.6875 -30.59375 64.6875 -35.78125 C 64.6875 -41.050781 63.800781 -45.738281 62.03125 -49.84375 C 60.257812 -53.945312 57.726562 -57.207031 54.4375 -59.625 C 51.15625 -62.050781 47.269531 -63.265625 42.78125 -63.265625 C 38.375 -63.265625 34.441406 -62.078125 30.984375 -59.703125 C 27.523438 -57.328125 24.820312 -54.082031 22.875 -49.96875 C 20.9375 -45.863281 19.96875 -41.132812 19.96875 -35.78125 C 19.96875 -30.507812 20.9375 -25.820312 22.875 -21.71875 C 24.820312 -17.613281 27.523438 -14.367188 30.984375 -11.984375 C 34.441406 -9.609375 38.375 -8.421875 42.78125 -8.421875 Z M 42.78125 -8.421875 "/></g></g></g><g fill="#a6a6a6" fill-opacity="1"><g transform="translate(251.917827, 142.121001)"><g><path d="M 14.78125 -84 C 12.445312 -84 10.457031 -84.796875 8.8125 -86.390625 C 7.175781 -87.992188 6.359375 -89.921875 6.359375 -92.171875 C 6.359375 -94.421875 7.175781 -96.320312 8.8125 -97.875 C 10.457031 -99.4375 12.445312 -100.21875 14.78125 -100.21875 C 17.113281 -100.21875 19.097656 -99.4375 20.734375 -97.875 C 22.378906 -96.320312 23.203125 -94.421875 23.203125 -92.171875 C 23.203125 -89.921875 22.378906 -87.992188 20.734375 -86.390625 C 19.097656 -84.796875 17.113281 -84 14.78125 -84 Z M 20.21875 0 L 9.203125 0 L 9.203125 -71.6875 L 20.21875 -71.6875 Z M 20.21875 0 "/></g></g></g><g fill="#a6a6a6" fill-opacity="1"><g transform="translate(281.343164, 142.121001)"><g><path d="M 38.109375 1.296875 C 28.953125 1.296875 21.539062 -0.882812 15.875 -5.25 C 10.21875 -9.613281 6.785156 -15.554688 5.578125 -23.078125 L 17.109375 -23.078125 C 18.054688 -18.753906 20.21875 -15.226562 23.59375 -12.5 C 26.96875 -9.78125 31.851562 -8.421875 38.25 -8.421875 C 43.082031 -8.421875 47.03125 -9.347656 50.09375 -11.203125 C 53.164062 -13.066406 54.703125 -15.816406 54.703125 -19.453125 C 54.703125 -22.472656 53.75 -24.800781 51.84375 -26.4375 C 49.945312 -28.082031 47.460938 -29.335938 44.390625 -30.203125 C 41.328125 -31.066406 38.023438 -31.847656 34.484375 -32.546875 C 31.367188 -33.148438 28.273438 -33.835938 25.203125 -34.609375 C 22.140625 -35.390625 19.351562 -36.46875 16.84375 -37.84375 C 14.34375 -39.226562 12.335938 -41.085938 10.828125 -43.421875 C 9.316406 -45.765625 8.5625 -48.75 8.5625 -52.375 C 8.5625 -56.863281 9.703125 -60.644531 11.984375 -63.71875 C 14.273438 -66.789062 17.410156 -69.101562 21.390625 -70.65625 C 25.367188 -72.207031 29.773438 -72.984375 34.609375 -72.984375 C 42.390625 -72.984375 48.875 -70.972656 54.0625 -66.953125 C 59.25 -62.941406 62.445312 -57.347656 63.65625 -50.171875 L 53.40625 -50.171875 C 52.289062 -54.753906 50.066406 -58.082031 46.734375 -60.15625 C 43.410156 -62.226562 39.367188 -63.265625 34.609375 -63.265625 C 29.859375 -63.265625 26.164062 -62.378906 23.53125 -60.609375 C 20.894531 -58.835938 19.578125 -56.394531 19.578125 -53.28125 C 19.578125 -50.769531 20.460938 -48.800781 22.234375 -47.375 C 24.003906 -45.957031 26.316406 -44.878906 29.171875 -44.140625 C 32.023438 -43.410156 35.09375 -42.695312 38.375 -42 C 41.570312 -41.394531 44.789062 -40.679688 48.03125 -39.859375 C 51.269531 -39.046875 54.226562 -37.898438 56.90625 -36.421875 C 59.59375 -34.953125 61.734375 -32.960938 63.328125 -30.453125 C 64.929688 -27.953125 65.734375 -24.671875 65.734375 -20.609375 C 65.734375 -14.046875 63.332031 -8.753906 58.53125 -4.734375 C 53.738281 -0.710938 46.929688 1.296875 38.109375 1.296875 Z M 38.109375 1.296875 "/></g></g></g><g fill="#a6a6a6" fill-opacity="1"><g transform="translate(353.545418, 142.121001)"><g/></g></g><g fill="#a6a6a6" fill-opacity="1"><g transform="translate(389.840977, 142.121001)"><g><path d="M 38.109375 1.296875 C 28.953125 1.296875 21.539062 -0.882812 15.875 -5.25 C 10.21875 -9.613281 6.785156 -15.554688 5.578125 -23.078125 L 17.109375 -23.078125 C 18.054688 -18.753906 20.21875 -15.226562 23.59375 -12.5 C 26.96875 -9.78125 31.851562 -8.421875 38.25 -8.421875 C 43.082031 -8.421875 47.03125 -9.347656 50.09375 -11.203125 C 53.164062 -13.066406 54.703125 -15.816406 54.703125 -19.453125 C 54.703125 -22.472656 53.75 -24.800781 51.84375 -26.4375 C 49.945312 -28.082031 47.460938 -29.335938 44.390625 -30.203125 C 41.328125 -31.066406 38.023438 -31.847656 34.484375 -32.546875 C 31.367188 -33.148438 28.273438 -33.835938 25.203125 -34.609375 C 22.140625 -35.390625 19.351562 -36.46875 16.84375 -37.84375 C 14.34375 -39.226562 12.335938 -41.085938 10.828125 -43.421875 C 9.316406 -45.765625 8.5625 -48.75 8.5625 -52.375 C 8.5625 -56.863281 9.703125 -60.644531 11.984375 -63.71875 C 14.273438 -66.789062 17.410156 -69.101562 21.390625 -70.65625 C 25.367188 -72.207031 29.773438 -72.984375 34.609375 -72.984375 C 42.390625 -72.984375 48.875 -70.972656 54.0625 -66.953125 C 59.25 -62.941406 62.445312 -57.347656 63.65625 -50.171875 L 53.40625 -50.171875 C 52.289062 -54.753906 50.066406 -58.082031 46.734375 -60.15625 C 43.410156 -62.226562 39.367188 -63.265625 34.609375 -63.265625 C 29.859375 -63.265625 26.164062 -62.378906 23.53125 -60.609375 C 20.894531 -58.835938 19.578125 -56.394531 19.578125 -53.28125 C 19.578125 -50.769531 20.460938 -48.800781 22.234375 -47.375 C 24.003906 -45.957031 26.316406 -44.878906 29.171875 -44.140625 C 32.023438 -43.410156 35.09375 -42.695312 38.375 -42 C 41.570312 -41.394531 44.789062 -40.679688 48.03125 -39.859375 C 51.269531 -39.046875 54.226562 -37.898438 56.90625 -36.421875 C 59.59375 -34.953125 61.734375 -32.960938 63.328125 -30.453125 C 64.929688 -27.953125 65.734375 -24.671875 65.734375 -20.609375 C 65.734375 -14.046875 63.332031 -8.753906 58.53125 -4.734375 C 53.738281 -0.710938 46.929688 1.296875 38.109375 1.296875 Z M 38.109375 1.296875 "/></g></g></g><g fill="#a6a6a6" fill-opacity="1"><g transform="translate(462.043208, 142.121001)"><g><path d="M 42 0 L 32.015625 0 C 28.472656 0 25.425781 -0.492188 22.875 -1.484375 C 20.332031 -2.484375 18.390625 -4.300781 17.046875 -6.9375 C 15.703125 -9.570312 15.03125 -13.265625 15.03125 -18.015625 L 15.03125 -61.96875 L 3.5 -61.96875 L 3.5 -71.6875 L 15.03125 -71.6875 L 15.03125 -98.921875 L 26.0625 -98.921875 L 26.0625 -71.6875 L 42.140625 -71.6875 L 42.140625 -61.96875 L 26.0625 -61.96875 L 26.0625 -20.21875 C 26.0625 -18.144531 26.210938 -16.304688 26.515625 -14.703125 C 26.816406 -13.109375 27.570312 -11.878906 28.78125 -11.015625 C 29.988281 -10.148438 31.929688 -9.71875 34.609375 -9.71875 L 42 -9.71875 Z M 42 0 "/></g></g></g><g fill="#a6a6a6" fill-opacity="1"><g transform="translate(508.838552, 142.121001)"><g><path d="M 41.21875 1.296875 C 34.394531 1.296875 28.347656 -0.300781 23.078125 -3.5 C 17.804688 -6.695312 13.675781 -11.125 10.6875 -16.78125 C 7.707031 -22.445312 6.21875 -28.910156 6.21875 -36.171875 C 6.21875 -43.253906 7.707031 -49.5625 10.6875 -55.09375 C 13.675781 -60.625 17.804688 -64.988281 23.078125 -68.1875 C 28.347656 -71.382812 34.394531 -72.984375 41.21875 -72.984375 C 48.050781 -72.984375 54.125 -71.382812 59.4375 -68.1875 C 64.75 -64.988281 68.914062 -60.625 71.9375 -55.09375 C 74.96875 -49.5625 76.484375 -43.253906 76.484375 -36.171875 C 76.484375 -28.992188 74.992188 -22.570312 72.015625 -16.90625 C 69.035156 -11.25 64.882812 -6.800781 59.5625 -3.5625 C 54.25 -0.320312 48.132812 1.296875 41.21875 1.296875 Z M 41.21875 -8.421875 C 45.800781 -8.421875 49.90625 -9.628906 53.53125 -12.046875 C 57.164062 -14.472656 60.039062 -17.78125 62.15625 -21.96875 C 64.28125 -26.164062 65.34375 -30.898438 65.34375 -36.171875 C 65.34375 -41.265625 64.300781 -45.863281 62.21875 -49.96875 C 60.144531 -54.082031 57.289062 -57.328125 53.65625 -59.703125 C 50.03125 -62.078125 45.882812 -63.265625 41.21875 -63.265625 C 36.644531 -63.265625 32.539062 -62.097656 28.90625 -59.765625 C 25.28125 -57.429688 22.429688 -54.210938 20.359375 -50.109375 C 18.285156 -46.003906 17.25 -41.359375 17.25 -36.171875 C 17.25 -30.804688 18.304688 -26.03125 20.421875 -21.84375 C 22.535156 -17.65625 25.40625 -14.367188 29.03125 -11.984375 C 32.664062 -9.609375 36.726562 -8.421875 41.21875 -8.421875 Z M 41.21875 -8.421875 "/></g></g></g><g fill="#a6a6a6" fill-opacity="1"><g transform="translate(591.670228, 142.121001)"><g><path d="M 20.21875 0 L 9.203125 0 L 9.203125 -71.6875 L 20.21875 -71.6875 L 20.21875 -61.84375 C 23.507812 -65.90625 27.03125 -68.773438 30.78125 -70.453125 C 34.539062 -72.140625 38.84375 -72.984375 43.6875 -72.984375 L 44.203125 -72.984375 L 44.203125 -61.96875 L 40.453125 -61.96875 C 34.660156 -61.96875 30.035156 -60.238281 26.578125 -56.78125 C 24.503906 -54.789062 22.925781 -52.238281 21.84375 -49.125 C 20.757812 -46.019531 20.21875 -42.21875 20.21875 -37.71875 Z M 20.21875 0 "/></g></g></g><g fill="#a6a6a6" fill-opacity="1"><g transform="translate(638.724845, 142.121001)"><g><path d="M 41.09375 1.296875 C 34.269531 1.296875 28.21875 -0.320312 22.9375 -3.5625 C 17.664062 -6.800781 13.5625 -11.207031 10.625 -16.78125 C 7.6875 -22.363281 6.21875 -28.65625 6.21875 -35.65625 C 6.21875 -42.132812 7.554688 -48.222656 10.234375 -53.921875 C 12.921875 -59.628906 16.851562 -64.234375 22.03125 -67.734375 C 27.21875 -71.234375 33.488281 -72.984375 40.84375 -72.984375 C 46.882812 -72.984375 52.519531 -71.644531 57.75 -68.96875 C 62.976562 -66.289062 67.234375 -62.316406 70.515625 -57.046875 C 73.804688 -51.773438 75.453125 -45.289062 75.453125 -37.59375 L 75.453125 -33.703125 L 17.109375 -33.703125 C 17.285156 -31.203125 17.757812 -28.828125 18.53125 -26.578125 C 20.351562 -21.046875 23.25 -16.632812 27.21875 -13.34375 C 31.195312 -10.0625 35.78125 -8.421875 40.96875 -8.421875 C 46.414062 -8.421875 50.953125 -9.867188 54.578125 -12.765625 C 58.210938 -15.660156 60.804688 -19.097656 62.359375 -23.078125 L 74.15625 -23.078125 C 72.6875 -18.578125 70.484375 -14.488281 67.546875 -10.8125 C 64.609375 -7.144531 60.957031 -4.207031 56.59375 -2 C 52.226562 0.195312 47.0625 1.296875 41.09375 1.296875 Z M 18.15625 -43.421875 L 63.65625 -43.421875 C 63.570312 -44.640625 63.398438 -45.851562 63.140625 -47.0625 C 62.878906 -48.269531 62.53125 -49.394531 62.09375 -50.4375 C 60.195312 -54.582031 57.367188 -57.753906 53.609375 -59.953125 C 49.847656 -62.160156 45.675781 -63.265625 41.09375 -63.265625 C 36.34375 -63.265625 32.171875 -62.140625 28.578125 -59.890625 C 24.992188 -57.640625 22.207031 -54.488281 20.21875 -50.4375 C 19.707031 -49.3125 19.273438 -48.140625 18.921875 -46.921875 C 18.578125 -45.710938 18.320312 -44.546875 18.15625 -43.421875 Z M 18.15625 -43.421875 "/></g></g></g></svg>